<svg width="10" height="15" viewBox="0 0 10 15" fill="none" xmlns="http://www.w3.org/2000/svg">
<path d="M3.20328 7.499L9.55123 2.20873C9.8046 1.99588 9.96332 1.69128 9.99261 1.36164C10.0219 1.032 9.9194 0.704181 9.70753 0.449973C9.49566 0.195765 9.1917 0.0358839 8.86222 0.00534196C8.53273 -0.0252 8.20457 0.0760862 7.9496 0.28702L0.449251 6.53812C0.308614 6.65563 0.195487 6.80259 0.117861 6.96862C0.040234 7.13465 0 7.3157 0 7.49898C0 7.68227 0.040234 7.86332 0.117861 8.02935C0.195487 8.19538 0.308614 8.34234 0.449251 8.45985L7.9496 14.7109C8.20446 14.9229 8.53301 15.025 8.86309 14.9948C9.19317 14.9646 9.49778 14.8047 9.71001 14.55C9.92223 14.2954 10.0247 13.9669 9.99494 13.6368C9.96517 13.3066 9.80558 13.0018 9.55123 12.7892L3.20328 7.499Z" fill="black"/>
</svg>
