<svg width="18" height="15" viewBox="0 0 18 15" fill="none" xmlns="http://www.w3.org/2000/svg">
<path d="M17.3077 2.72728H5.53846C5.35485 2.72728 5.17876 2.65545 5.04893 2.52758C4.91909 2.39972 4.84615 2.2263 4.84615 2.04547C4.84615 1.86464 4.91909 1.69121 5.04893 1.56335C5.17876 1.43548 5.35485 1.36365 5.53846 1.36365H17.3077C17.4913 1.36365 17.6674 1.43548 17.7972 1.56335C17.9271 1.69121 18 1.86464 18 2.04547C18 2.2263 17.9271 2.39972 17.7972 2.52758C17.6674 2.65545 17.4913 2.72728 17.3077 2.72728Z" fill="black"/>
<path d="M2.76923 2.72728H0.692308C0.508696 2.72728 0.332605 2.65545 0.202772 2.52758C0.0729393 2.39972 0 2.2263 0 2.04547C0 1.86464 0.0729393 1.69121 0.202772 1.56335C0.332605 1.43548 0.508696 1.36365 0.692308 1.36365H2.76923C2.95284 1.36365 3.12893 1.43548 3.25877 1.56335C3.3886 1.69121 3.46154 1.86464 3.46154 2.04547C3.46154 2.2263 3.3886 2.39972 3.25877 2.52758C3.12893 2.65545 2.95284 2.72728 2.76923 2.72728Z" fill="black"/>
<path d="M12.4615 8.18181H0.692308C0.508696 8.18181 0.332605 8.10998 0.202772 7.98211C0.0729393 7.85425 0 7.68082 0 7.49999C0 7.31917 0.0729393 7.14574 0.202772 7.01788C0.332605 6.89001 0.508696 6.81818 0.692308 6.81818H12.4615C12.6452 6.81818 12.8212 6.89001 12.9511 7.01788C13.0809 7.14574 13.1538 7.31917 13.1538 7.49999C13.1538 7.68082 13.0809 7.85425 12.9511 7.98211C12.8212 8.10998 12.6452 8.18181 12.4615 8.18181Z" fill="black"/>
<path d="M5.53846 13.6363H0.692308C0.508696 13.6363 0.332605 13.5645 0.202772 13.4366C0.0729393 13.3088 0 13.1354 0 12.9545C0 12.7737 0.0729393 12.6003 0.202772 12.4724C0.332605 12.3445 0.508696 12.2727 0.692308 12.2727H5.53846C5.72207 12.2727 5.89816 12.3445 6.028 12.4724C6.15783 12.6003 6.23077 12.7737 6.23077 12.9545C6.23077 13.1354 6.15783 13.3088 6.028 13.4366C5.89816 13.5645 5.72207 13.6363 5.53846 13.6363Z" fill="black"/>
<path d="M4.15384 4.09091C3.74307 4.09091 3.34151 3.97095 2.99997 3.74619C2.65842 3.52143 2.39221 3.20198 2.23502 2.82822C2.07782 2.45446 2.03669 2.04319 2.11683 1.64641C2.19697 1.24963 2.39477 0.885163 2.68524 0.599101C2.9757 0.313039 3.34577 0.118228 3.74866 0.0393038C4.15154 -0.0396206 4.56914 0.000886267 4.94865 0.155702C5.32816 0.310518 5.65253 0.572688 5.88074 0.909062C6.10896 1.24543 6.23077 1.6409 6.23077 2.04546C6.23077 2.58794 6.01195 3.10821 5.62245 3.49181C5.23295 3.87541 4.70468 4.09091 4.15384 4.09091ZM4.15384 1.36364C4.01692 1.36364 3.88307 1.40363 3.76922 1.47854C3.65537 1.55346 3.56663 1.65995 3.51423 1.78454C3.46184 1.90912 3.44813 2.04621 3.47484 2.17847C3.50155 2.31073 3.56749 2.43222 3.66431 2.52757C3.76113 2.62293 3.88449 2.68786 4.01878 2.71417C4.15308 2.74048 4.29228 2.72698 4.41878 2.67537C4.54528 2.62377 4.6534 2.53638 4.72948 2.42425C4.80555 2.31213 4.84615 2.18031 4.84615 2.04546C4.84615 1.86463 4.77321 1.6912 4.64338 1.56334C4.51355 1.43547 4.33745 1.36364 4.15384 1.36364Z" fill="black"/>
<path d="M13.8462 9.54544C13.4354 9.54544 13.0338 9.42548 12.6923 9.20072C12.3507 8.97596 12.0845 8.6565 11.9273 8.28275C11.7701 7.90899 11.729 7.49772 11.8091 7.10094C11.8893 6.70416 12.0871 6.33969 12.3775 6.05363C12.668 5.76757 13.0381 5.57276 13.441 5.49383C13.8438 5.41491 14.2614 5.45542 14.641 5.61023C15.0205 5.76505 15.3448 6.02722 15.5731 6.36359C15.8013 6.69996 15.9231 7.09543 15.9231 7.49998C15.9231 8.04247 15.7043 8.56274 15.3148 8.94634C14.9253 9.32994 14.397 9.54544 13.8462 9.54544ZM13.8462 6.81817C13.7092 6.81817 13.5754 6.85815 13.4615 6.93307C13.3477 7.00799 13.2589 7.11448 13.2065 7.23906C13.1541 7.36365 13.1404 7.50074 13.1671 7.633C13.1939 7.76526 13.2598 7.88675 13.3566 7.9821C13.4534 8.07746 13.5768 8.14239 13.7111 8.1687C13.8454 8.19501 13.9846 8.18151 14.1111 8.1299C14.2376 8.0783 14.3457 7.99091 14.4218 7.87878C14.4979 7.76666 14.5385 7.63484 14.5385 7.49998C14.5385 7.31916 14.4655 7.14573 14.3357 7.01787C14.2059 6.89 14.0298 6.81817 13.8462 6.81817Z" fill="black"/>
<path d="M6.92308 15C6.5123 15 6.11075 14.8801 5.7692 14.6553C5.42765 14.4306 5.16145 14.1111 5.00425 13.7373C4.84705 13.3636 4.80592 12.9523 4.88606 12.5555C4.9662 12.1587 5.16401 11.7943 5.45447 11.5082C5.74493 11.2222 6.11501 11.0273 6.51789 10.9484C6.92077 10.8695 7.33837 10.91 7.71788 11.0648C8.09739 11.2196 8.42176 11.4818 8.64998 11.8182C8.87819 12.1546 9 12.55 9 12.9546C9 13.4971 8.78118 14.0173 8.39168 14.4009C8.00219 14.7845 7.47391 15 6.92308 15ZM6.92308 12.2728C6.78615 12.2728 6.6523 12.3127 6.53845 12.3877C6.4246 12.4626 6.33587 12.5691 6.28347 12.6937C6.23107 12.8182 6.21736 12.9553 6.24407 13.0876C6.27078 13.2199 6.33672 13.3413 6.43354 13.4367C6.53036 13.532 6.65372 13.597 6.78801 13.6233C6.92231 13.6496 7.06151 13.6361 7.18801 13.5845C7.31451 13.5329 7.42264 13.4455 7.49871 13.3334C7.57478 13.2212 7.61538 13.0894 7.61538 12.9546C7.61538 12.7737 7.54245 12.6003 7.41261 12.4725C7.28278 12.3446 7.10669 12.2728 6.92308 12.2728Z" fill="black"/>
<path d="M17.3077 8.18181H15.2308C15.0472 8.18181 14.8711 8.10998 14.7412 7.98211C14.6114 7.85425 14.5385 7.68082 14.5385 7.49999C14.5385 7.31917 14.6114 7.14574 14.7412 7.01788C14.8711 6.89001 15.0472 6.81818 15.2308 6.81818H17.3077C17.4913 6.81818 17.6674 6.89001 17.7972 7.01788C17.9271 7.14574 18 7.31917 18 7.49999C18 7.68082 17.9271 7.85425 17.7972 7.98211C17.6674 8.10998 17.4913 8.18181 17.3077 8.18181Z" fill="black"/>
<path d="M17.3077 13.6363H8.30769C8.12408 13.6363 7.94799 13.5645 7.81816 13.4366C7.68833 13.3088 7.61539 13.1354 7.61539 12.9545C7.61539 12.7737 7.68833 12.6003 7.81816 12.4724C7.94799 12.3445 8.12408 12.2727 8.30769 12.2727H17.3077C17.4913 12.2727 17.6674 12.3445 17.7972 12.4724C17.9271 12.6003 18 12.7737 18 12.9545C18 13.1354 17.9271 13.3088 17.7972 13.4366C17.6674 13.5645 17.4913 13.6363 17.3077 13.6363Z" fill="black"/>
</svg>
