<svg width="10" height="15" viewBox="0 0 10 15" fill="none" xmlns="http://www.w3.org/2000/svg">
<path d="M6.79672 7.501L0.448773 12.7913C0.195398 13.0041 0.0366839 13.3087 0.00738878 13.6384C-0.0219063 13.968 0.0806041 14.2958 0.292472 14.55C0.50434 14.8042 0.808298 14.9641 1.13778 14.9947C1.46727 15.0252 1.79543 14.9239 2.0504 14.713L9.55075 8.46188C9.69139 8.34437 9.80451 8.19741 9.88214 8.03138C9.95977 7.86535 10 7.6843 10 7.50102C10 7.31773 9.95977 7.13668 9.88214 6.97065C9.80451 6.80462 9.69139 6.65766 9.55075 6.54015L2.0504 0.289073C1.79554 0.0771275 1.46699 -0.0249747 1.13691 0.00519551C0.806826 0.0353657 0.502218 0.195341 0.289994 0.449978C0.0777702 0.704616 -0.0247127 1.03309 0.00505863 1.36325C0.0348299 1.69341 0.194422 1.99825 0.448773 2.2108L6.79672 7.501Z" fill="black"/>
</svg>
